# xmcd
#
# Track frame offsets:
#	150
#	25880
#	45814
#	65456
#	95356
#	112891
#	148344
#	168405
#	188923
#	210501
#
# Disc length: 3401 seconds
#
# Revision: 0
# Processed by: cddbd v1.5.2PL0 Copyright (c) Steve Scherf et al.
# Submitted via: dBpowerAMP V4.0
#
DISCID=810d470a
DTITLE=The Bluezone - The Sweetest and Most Perfect Things
DYEAR=1900
DGENRE=
TTITLE0=Take It
TTITLE1=Fade to Blue
TTITLE2=Smoother Ride
TTITLE3=Trouble Mn
TTITLE4=That's The Way it Is
TTITLE5=You're the One
TTITLE6=Ungrateful Love Song
TTITLE7=Plug in Lover
TTITLE8=Run Me Down
TTITLE9=Backeat
EXTD=
EXTT0=
EXTT1=
EXTT2=
EXTT3=
EXTT4=
EXTT5=
EXTT6=
EXTT7=
EXTT8=
EXTT9=
PLAYORDER=
